# xmcd CD database file
#
# Track frame offsets:
#	150
#	26869
#	64452
#	86249
#	116616
#	154093
#	177816
#
# Disc length: 2634 seconds
#
# Revision: 0
# Processed by: cddbd v1.5.2PL0 Copyright (c) Steve Scherf et al.
# Submitted via: CDex 1.51
#
DISCID=5d0a4807
DTITLE=Wonderland Park - Just Get In
DYEAR=2016
DGENRE=Jazz
TTITLE0=All Due Respect
TTITLE1=Just Get In
TTITLE2=Bobby's Big Wheel
TTITLE3=Barron's Crossing
TTITLE4=Truth Be Told
TTITLE5=Spittin' Image
TTITLE6=A Far Cry
EXTD=YEAR: 2016
EXTT0=
EXTT1=
EXTT2=
EXTT3=
EXTT4=
EXTT5=
EXTT6=
PLAYORDER=
